<?xml version="1.0" encoding="UTF-8"?>
<svg xmlns="http://www.w3.org/2000/svg" xmlns:xlink="http://www.w3.org/1999/xlink" width="30px" height="20px" viewBox="0 0 30 20" version="1.1">
<g id="surface1">
<path style=" stroke:none;fill-rule:nonzero;fill:rgb(10.588235%,30.588236%,61.176473%);fill-opacity:1;" d="M 23.722656 17.667969 C 23.632812 17.710938 23.519531 17.71875 23.371094 17.71875 L 23.304688 17.71875 L 23.304688 17.019531 C 23.304688 16.898438 23.320312 16.867188 23.515625 16.867188 C 23.699219 16.867188 23.984375 16.984375 23.984375 17.277344 C 23.984375 17.425781 23.914062 17.570312 23.722656 17.667969 Z M 29.195312 17.472656 L 29.089844 17.441406 C 28.785156 17.355469 28.605469 17.265625 28.605469 17.113281 C 28.605469 16.96875 28.777344 16.847656 29.015625 16.847656 C 29.386719 16.847656 29.554688 17.066406 29.65625 17.265625 L 29.863281 17.246094 C 29.8125 17.039062 29.777344 16.890625 29.757812 16.769531 C 29.699219 16.757812 29.621094 16.746094 29.515625 16.726562 C 29.371094 16.703125 29.226562 16.691406 29.082031 16.691406 C 28.34375 16.691406 27.957031 16.96875 27.957031 17.316406 C 27.957031 17.640625 28.390625 17.800781 28.78125 17.914062 L 28.851562 17.933594 C 29.144531 18.015625 29.320312 18.121094 29.320312 18.300781 C 29.320312 18.5 29.132812 18.601562 28.890625 18.601562 C 28.425781 18.601562 28.148438 18.265625 28.050781 18.085938 L 27.84375 18.125 C 27.894531 18.308594 27.949219 18.460938 27.984375 18.589844 C 27.832031 18.570312 27.707031 18.523438 27.484375 18.332031 C 27.195312 18.074219 26.886719 17.796875 26.601562 17.507812 C 26.796875 17.355469 27.027344 17.203125 27.277344 17.042969 C 27.519531 16.890625 27.664062 16.851562 27.925781 16.832031 L 27.925781 16.738281 L 26.683594 16.738281 L 26.683594 16.832031 L 26.859375 16.84375 C 26.984375 16.855469 26.933594 16.9375 26.871094 16.992188 C 26.601562 17.222656 26.316406 17.449219 25.980469 17.699219 L 25.980469 17.222656 C 25.980469 16.894531 26.015625 16.851562 26.324219 16.832031 L 26.324219 16.738281 L 24.878906 16.738281 L 24.878906 16.832031 C 25.203125 16.851562 25.238281 16.894531 25.238281 17.222656 L 25.238281 18.226562 C 25.238281 18.421875 25.226562 18.53125 25.152344 18.570312 C 25.046875 18.625 24.96875 18.589844 24.886719 18.53125 C 24.8125 18.46875 24.710938 18.34375 24.550781 18.183594 C 24.417969 18.042969 24.246094 17.832031 24.179688 17.746094 C 24.523438 17.660156 24.78125 17.5 24.78125 17.234375 C 24.78125 17.054688 24.640625 16.917969 24.453125 16.839844 C 24.273438 16.765625 24.03125 16.738281 23.664062 16.738281 L 22.183594 16.738281 L 22.210938 16.832031 C 22.523438 16.851562 22.53125 16.894531 22.53125 17.222656 L 22.53125 18.226562 C 22.53125 18.554688 22.496094 18.597656 22.164062 18.617188 L 22.164062 18.714844 L 23.664062 18.714844 L 23.664062 18.617188 C 23.34375 18.597656 23.304688 18.554688 23.304688 18.226562 L 23.304688 17.863281 L 23.367188 17.863281 C 23.457031 17.863281 23.519531 17.90625 23.5625 17.972656 C 23.679688 18.140625 23.808594 18.332031 23.949219 18.460938 C 24.136719 18.636719 24.289062 18.75 24.9375 18.738281 C 24.988281 18.738281 25.171875 18.726562 25.214844 18.714844 L 26.347656 18.714844 L 26.347656 18.617188 C 26.015625 18.597656 25.972656 18.554688 25.980469 18.226562 L 25.980469 17.742188 L 25.988281 17.742188 C 26.328125 18.074219 26.8125 18.519531 26.988281 18.714844 L 28.054688 18.714844 L 28.054688 18.652344 C 28.132812 18.671875 28.214844 18.691406 28.296875 18.707031 C 28.464844 18.742188 28.632812 18.757812 28.804688 18.761719 C 29.535156 18.761719 30 18.484375 30 18.113281 C 30 17.753906 29.628906 17.597656 29.195312 17.472656 "/>
<path style=" stroke:none;fill-rule:nonzero;fill:rgb(10.588235%,30.588236%,61.176473%);fill-opacity:1;" d="M 21.015625 18.601562 C 20.546875 18.601562 20.222656 18.199219 20.222656 17.648438 C 20.222656 17.117188 20.527344 16.847656 20.894531 16.847656 C 21.304688 16.847656 21.648438 17.1875 21.648438 17.796875 C 21.648438 18.347656 21.421875 18.601562 21.015625 18.601562 Z M 9.785156 17.984375 L 10.066406 17.394531 L 10.082031 17.394531 L 10.367188 17.984375 Z M 5.796875 17.710938 C 5.707031 17.753906 5.597656 17.765625 5.453125 17.765625 L 5.386719 17.765625 L 5.386719 17.054688 C 5.386719 16.933594 5.402344 16.898438 5.59375 16.898438 C 5.773438 16.898438 6.050781 17.019531 6.050781 17.316406 C 6.050781 17.46875 5.984375 17.613281 5.796875 17.710938 Z M 2.175781 18.546875 C 1.859375 18.546875 1.714844 18.453125 1.714844 18.085938 L 1.714844 16.503906 C 1.714844 16.402344 1.722656 16.304688 1.753906 16.296875 C 1.800781 16.28125 1.886719 16.269531 2.039062 16.269531 C 2.59375 16.269531 3.3125 16.515625 3.3125 17.402344 C 3.3125 18.132812 2.738281 18.546875 2.175781 18.546875 Z M 22.53125 17.699219 C 22.53125 17.097656 21.859375 16.691406 20.992188 16.691406 C 20.304688 16.691406 19.847656 16.898438 19.589844 17.167969 C 19.75 16.855469 19.851562 16.660156 19.867188 16.632812 C 20.089844 16.265625 20.148438 16.234375 20.511719 16.199219 L 20.511719 16.058594 L 18.953125 16.058594 L 18.953125 16.199219 L 19.203125 16.214844 C 19.484375 16.234375 19.5 16.300781 19.417969 16.539062 C 19.324219 16.785156 19.085938 17.375 18.855469 17.863281 L 18.84375 17.839844 L 17.855469 16.0625 L 17.398438 16.0625 L 16.542969 17.839844 L 16.53125 17.863281 L 15.914062 16.460938 C 15.835938 16.289062 15.855469 16.238281 16.09375 16.214844 L 16.304688 16.199219 L 16.304688 16.058594 L 14.269531 16.058594 L 14.269531 16.199219 C 14.570312 16.222656 14.6875 16.261719 14.863281 16.609375 L 14.941406 16.769531 L 13.972656 16.769531 L 13.246094 17.988281 L 12.414062 16.769531 L 11.300781 16.769531 L 11.300781 16.867188 C 11.675781 16.886719 11.714844 16.945312 11.679688 17.332031 L 11.628906 17.957031 C 11.605469 18.234375 11.574219 18.398438 11.550781 18.496094 C 11.542969 18.527344 11.539062 18.566406 11.511719 18.574219 C 11.476562 18.578125 11.40625 18.464844 11.34375 18.351562 C 11.152344 18.003906 10.964844 17.652344 10.777344 17.304688 L 10.46875 16.722656 L 10.152344 16.765625 L 9.242188 18.359375 C 9.230469 18.375 9.222656 18.394531 9.210938 18.410156 C 9.175781 18.457031 9.140625 18.515625 9.105469 18.542969 C 9.003906 18.617188 8.738281 18.632812 8.554688 18.632812 C 8.410156 18.632812 8.304688 18.632812 8.230469 18.605469 C 8.144531 18.578125 8.136719 18.480469 8.136719 18.320312 L 8.136719 17.816406 L 8.367188 17.816406 C 8.765625 17.816406 8.78125 17.835938 8.828125 18.105469 L 9.03125 18.105469 L 9.03125 17.378906 L 8.828125 17.378906 C 8.78125 17.613281 8.765625 17.632812 8.367188 17.632812 L 8.136719 17.632812 L 8.136719 17.035156 C 8.136719 16.929688 8.144531 16.90625 8.320312 16.90625 L 8.402344 16.90625 C 8.648438 16.90625 8.800781 16.925781 8.875 16.976562 C 8.949219 17.027344 9 17.136719 9.042969 17.285156 L 9.25 17.277344 C 9.226562 17.046875 9.203125 16.820312 9.199219 16.769531 L 7.003906 16.769531 L 7.003906 16.867188 C 7.3125 16.882812 7.347656 16.929688 7.347656 17.261719 L 7.347656 18.277344 C 7.347656 18.570312 7.320312 18.625 7.070312 18.644531 C 7.023438 18.621094 6.980469 18.59375 6.941406 18.5625 C 6.867188 18.5 6.765625 18.394531 6.609375 18.234375 C 6.476562 18.089844 6.308594 17.878906 6.246094 17.792969 C 6.582031 17.703125 6.835938 17.542969 6.835938 17.269531 C 6.835938 17.089844 6.699219 16.949219 6.515625 16.875 C 6.335938 16.796875 6.097656 16.769531 5.742188 16.769531 L 4.335938 16.769531 C 4.238281 16.632812 4.101562 16.519531 3.957031 16.429688 C 3.515625 16.160156 2.84375 16.0625 2.039062 16.0625 L 0.117188 16.0625 L 0.117188 16.222656 C 0.546875 16.246094 0.597656 16.277344 0.597656 16.722656 L 0.597656 18.082031 C 0.597656 18.527344 0.546875 18.582031 0.0664062 18.605469 L 0.0664062 18.742188 L 1.761719 18.742188 C 3.277344 18.742188 4.519531 18.300781 4.519531 17.273438 C 4.519531 17.132812 4.476562 16.996094 4.40625 16.875 C 4.625 16.898438 4.652344 16.96875 4.652344 17.261719 L 4.652344 18.277344 C 4.652344 18.613281 4.617188 18.65625 4.292969 18.675781 L 4.292969 18.773438 L 5.738281 18.773438 L 5.738281 18.675781 C 5.425781 18.65625 5.386719 18.613281 5.386719 18.277344 L 5.386719 17.910156 L 5.445312 17.910156 C 5.535156 17.910156 5.597656 17.957031 5.640625 18.019531 C 5.753906 18.191406 5.882812 18.382812 6.019531 18.515625 C 6.203125 18.695312 6.355469 18.789062 7.003906 18.796875 C 7.101562 18.792969 7.160156 18.78125 7.191406 18.773438 L 9.851562 18.773438 L 9.851562 18.675781 L 9.71875 18.664062 C 9.511719 18.648438 9.507812 18.597656 9.570312 18.464844 L 9.707031 18.167969 L 10.453125 18.167969 L 10.617188 18.484375 C 10.679688 18.59375 10.667969 18.648438 10.5 18.660156 L 10.363281 18.675781 L 10.363281 18.773438 L 12.378906 18.773438 L 12.378906 18.675781 C 12.070312 18.660156 11.964844 18.609375 11.945312 18.496094 C 11.925781 18.398438 11.921875 18.25 11.9375 17.988281 L 11.96875 17.300781 L 11.980469 17.300781 L 12.847656 18.738281 L 13.105469 18.738281 L 14.019531 17.195312 L 14.039062 17.195312 L 14.054688 18.277344 C 14.058594 18.621094 14.042969 18.652344 13.6875 18.675781 L 13.6875 18.773438 L 15.171875 18.773438 L 15.171875 18.675781 C 14.832031 18.652344 14.820312 18.621094 14.808594 18.277344 L 14.761719 17.246094 C 14.75 16.964844 14.761719 16.902344 14.996094 16.875 L 15.964844 18.800781 L 16.464844 18.800781 L 17.339844 17.105469 L 17.351562 17.105469 L 18.308594 18.800781 L 18.8125 18.800781 C 18.984375 18.421875 19.160156 18.042969 19.34375 17.667969 C 19.339844 17.695312 19.339844 17.722656 19.339844 17.753906 C 19.339844 18.3125 19.964844 18.761719 20.925781 18.761719 C 21.835938 18.761719 22.53125 18.351562 22.53125 17.699219 M 0.03125 19.738281 L 8.714844 19.738281 L 8.714844 19.625 L 0.03125 19.625 Z M 0.03125 19.738281 "/>
<path style=" stroke:none;fill-rule:nonzero;fill:rgb(10.588235%,30.588236%,61.176473%);fill-opacity:1;" d="M 0.0625 19.707031 L 8.683594 19.707031 L 8.683594 19.65625 L 0.0625 19.65625 Z M 0.03125 19.769531 L 0.03125 19.738281 L 0.0625 19.738281 L 0.03125 19.738281 L 0.03125 19.769531 L 0 19.769531 L 0 19.59375 L 8.746094 19.59375 L 8.746094 19.769531 L 0.03125 19.769531 M 21.253906 19.734375 L 29.9375 19.734375 L 29.9375 19.625 L 21.253906 19.625 Z M 21.253906 19.734375 "/>
<path style=" stroke:none;fill-rule:nonzero;fill:rgb(10.588235%,30.588236%,61.176473%);fill-opacity:1;" d="M 21.285156 19.703125 L 29.90625 19.703125 L 29.90625 19.65625 L 21.285156 19.65625 Z M 21.253906 19.765625 L 21.253906 19.734375 L 21.285156 19.734375 L 21.253906 19.734375 L 21.253906 19.765625 L 21.222656 19.765625 L 21.222656 19.589844 L 29.96875 19.589844 L 29.96875 19.765625 L 21.253906 19.765625 M 9.15625 19.699219 L 9.359375 19.699219 L 9.257812 19.492188 L 9.253906 19.492188 Z M 9.355469 19.9375 L 9.40625 19.933594 C 9.464844 19.929688 9.46875 19.917969 9.445312 19.878906 L 9.390625 19.765625 L 9.128906 19.765625 L 9.078125 19.871094 C 9.058594 19.917969 9.058594 19.929688 9.132812 19.933594 L 9.179688 19.9375 L 9.179688 19.980469 L 8.804688 19.980469 L 8.804688 19.9375 C 8.886719 19.929688 8.910156 19.925781 8.964844 19.832031 L 9.285156 19.269531 L 9.394531 19.253906 L 9.503906 19.460938 C 9.570312 19.585938 9.632812 19.707031 9.703125 19.832031 C 9.753906 19.925781 9.78125 19.929688 9.859375 19.9375 L 9.859375 19.980469 L 9.355469 19.980469 L 9.355469 19.9375 M 10.851562 19.988281 L 10.714844 19.988281 L 10.125 19.472656 L 10.121094 19.472656 L 10.121094 19.671875 C 10.121094 19.789062 10.128906 19.847656 10.132812 19.882812 C 10.140625 19.921875 10.183594 19.933594 10.289062 19.9375 L 10.289062 19.980469 L 9.890625 19.980469 L 9.890625 19.9375 C 9.960938 19.9375 10.003906 19.921875 10.011719 19.882812 C 10.019531 19.847656 10.023438 19.789062 10.023438 19.671875 L 10.023438 19.472656 C 10.023438 19.390625 10.023438 19.378906 9.988281 19.347656 C 9.964844 19.324219 9.925781 19.316406 9.867188 19.3125 L 9.867188 19.269531 L 10.222656 19.269531 L 10.753906 19.722656 L 10.757812 19.722656 L 10.757812 19.578125 C 10.757812 19.460938 10.75 19.402344 10.746094 19.367188 C 10.738281 19.332031 10.695312 19.316406 10.585938 19.3125 L 10.585938 19.269531 L 10.996094 19.269531 L 10.996094 19.3125 C 10.914062 19.316406 10.875 19.332031 10.867188 19.367188 C 10.859375 19.402344 10.851562 19.460938 10.851562 19.578125 L 10.851562 19.988281 M 11.457031 19.804688 C 11.457031 19.921875 11.472656 19.929688 11.582031 19.9375 L 11.582031 19.980469 L 11.0625 19.980469 L 11.0625 19.9375 C 11.171875 19.929688 11.1875 19.921875 11.1875 19.804688 L 11.1875 19.445312 C 11.1875 19.328125 11.171875 19.320312 11.0625 19.3125 L 11.0625 19.269531 L 11.582031 19.269531 L 11.582031 19.3125 C 11.472656 19.320312 11.457031 19.328125 11.457031 19.445312 L 11.457031 19.804688 M 12.976562 19.269531 L 12.976562 19.3125 C 12.855469 19.320312 12.847656 19.324219 12.851562 19.441406 L 12.871094 19.804688 C 12.875 19.925781 12.878906 19.929688 12.992188 19.9375 L 12.992188 19.980469 L 12.492188 19.980469 L 12.492188 19.9375 C 12.613281 19.929688 12.617188 19.925781 12.613281 19.804688 L 12.609375 19.421875 L 12.605469 19.421875 L 12.296875 19.96875 L 12.207031 19.96875 L 11.914062 19.460938 L 11.902344 19.703125 C 11.898438 19.796875 11.898438 19.847656 11.90625 19.882812 C 11.910156 19.921875 11.945312 19.933594 12.050781 19.9375 L 12.050781 19.980469 L 11.65625 19.980469 L 11.65625 19.9375 C 11.730469 19.933594 11.761719 19.921875 11.773438 19.882812 C 11.78125 19.847656 11.789062 19.789062 11.796875 19.691406 L 11.816406 19.46875 C 11.824219 19.332031 11.8125 19.320312 11.6875 19.3125 L 11.6875 19.269531 L 12.0625 19.269531 L 12.34375 19.703125 L 12.585938 19.269531 L 12.976562 19.269531 M 13.375 19.699219 L 13.582031 19.699219 L 13.480469 19.492188 L 13.476562 19.492188 Z M 13.578125 19.9375 L 13.628906 19.933594 C 13.6875 19.929688 13.691406 19.917969 13.667969 19.878906 L 13.613281 19.765625 L 13.347656 19.765625 L 13.300781 19.871094 C 13.28125 19.917969 13.28125 19.929688 13.355469 19.933594 L 13.402344 19.9375 L 13.402344 19.980469 L 13.027344 19.980469 L 13.027344 19.9375 C 13.109375 19.929688 13.132812 19.925781 13.1875 19.832031 L 13.507812 19.269531 L 13.617188 19.253906 L 13.726562 19.460938 C 13.789062 19.585938 13.855469 19.707031 13.921875 19.832031 C 13.976562 19.925781 14.003906 19.929688 14.082031 19.9375 L 14.082031 19.980469 L 13.578125 19.980469 L 13.578125 19.9375 M 14.550781 19.804688 C 14.550781 19.921875 14.5625 19.929688 14.699219 19.9375 L 14.699219 19.980469 L 14.136719 19.980469 L 14.136719 19.9375 C 14.265625 19.929688 14.277344 19.921875 14.277344 19.804688 L 14.277344 19.328125 L 14.25 19.328125 C 14.144531 19.328125 14.101562 19.339844 14.074219 19.359375 C 14.054688 19.375 14.039062 19.40625 14.015625 19.464844 L 13.949219 19.464844 C 13.957031 19.375 13.964844 19.300781 13.96875 19.242188 L 14.019531 19.242188 C 14.042969 19.269531 14.058594 19.269531 14.101562 19.269531 L 14.738281 19.269531 C 14.78125 19.269531 14.789062 19.265625 14.816406 19.242188 L 14.863281 19.242188 C 14.867188 19.289062 14.875 19.382812 14.882812 19.460938 L 14.8125 19.464844 C 14.789062 19.402344 14.769531 19.371094 14.746094 19.351562 C 14.71875 19.332031 14.664062 19.328125 14.589844 19.328125 L 14.550781 19.328125 L 14.550781 19.804688 M 15.347656 19.804688 C 15.347656 19.921875 15.359375 19.929688 15.472656 19.9375 L 15.472656 19.980469 L 14.953125 19.980469 L 14.953125 19.9375 C 15.0625 19.929688 15.074219 19.921875 15.074219 19.804688 L 15.074219 19.445312 C 15.074219 19.328125 15.0625 19.320312 14.953125 19.3125 L 14.953125 19.269531 L 15.472656 19.269531 L 15.472656 19.3125 C 15.359375 19.320312 15.347656 19.328125 15.347656 19.445312 L 15.347656 19.804688 M 15.871094 19.597656 C 15.871094 19.796875 15.976562 19.941406 16.136719 19.941406 C 16.273438 19.941406 16.347656 19.847656 16.347656 19.652344 C 16.347656 19.433594 16.230469 19.3125 16.09375 19.3125 C 15.972656 19.3125 15.871094 19.40625 15.871094 19.597656 Z M 16.644531 19.617188 C 16.644531 19.851562 16.410156 19.996094 16.105469 19.996094 C 15.78125 19.996094 15.570312 19.835938 15.570312 19.636719 C 15.570312 19.457031 15.746094 19.253906 16.125 19.253906 C 16.417969 19.253906 16.644531 19.398438 16.644531 19.617188 M 17.699219 19.988281 L 17.558594 19.988281 L 16.96875 19.472656 L 16.964844 19.472656 L 16.964844 19.671875 C 16.964844 19.789062 16.972656 19.847656 16.976562 19.882812 C 16.984375 19.921875 17.03125 19.933594 17.136719 19.9375 L 17.136719 19.980469 L 16.734375 19.980469 L 16.734375 19.9375 C 16.808594 19.9375 16.847656 19.921875 16.855469 19.882812 C 16.863281 19.847656 16.871094 19.789062 16.871094 19.671875 L 16.871094 19.472656 C 16.871094 19.390625 16.867188 19.378906 16.832031 19.347656 C 16.808594 19.324219 16.769531 19.316406 16.710938 19.3125 L 16.710938 19.269531 L 17.066406 19.269531 L 17.597656 19.722656 L 17.601562 19.722656 L 17.601562 19.578125 C 17.601562 19.460938 17.59375 19.402344 17.589844 19.367188 C 17.582031 19.332031 17.539062 19.316406 17.433594 19.3125 L 17.433594 19.269531 L 17.839844 19.269531 L 17.839844 19.3125 C 17.761719 19.316406 17.71875 19.332031 17.710938 19.367188 C 17.703125 19.402344 17.699219 19.460938 17.699219 19.578125 L 17.699219 19.988281 M 18.292969 19.753906 C 18.328125 19.820312 18.421875 19.941406 18.578125 19.941406 C 18.660156 19.941406 18.726562 19.902344 18.726562 19.832031 C 18.726562 19.769531 18.664062 19.730469 18.566406 19.699219 L 18.539062 19.691406 C 18.410156 19.652344 18.261719 19.59375 18.261719 19.476562 C 18.261719 19.355469 18.390625 19.253906 18.644531 19.253906 C 18.691406 19.253906 18.746094 19.257812 18.789062 19.265625 C 18.828125 19.273438 18.851562 19.277344 18.875 19.28125 C 18.878906 19.324219 18.890625 19.378906 18.910156 19.453125 L 18.839844 19.460938 C 18.804688 19.386719 18.746094 19.3125 18.621094 19.3125 C 18.539062 19.3125 18.480469 19.351562 18.480469 19.40625 C 18.480469 19.460938 18.542969 19.492188 18.648438 19.523438 L 18.683594 19.535156 C 18.828125 19.582031 18.957031 19.636719 18.957031 19.765625 C 18.957031 19.898438 18.796875 19.996094 18.550781 19.996094 C 18.492188 19.996094 18.433594 19.992188 18.375 19.980469 C 18.328125 19.96875 18.292969 19.957031 18.277344 19.953125 C 18.261719 19.902344 18.242188 19.84375 18.222656 19.769531 L 18.292969 19.753906 M 19.417969 19.804688 C 19.417969 19.921875 19.433594 19.929688 19.546875 19.9375 L 19.546875 19.980469 L 19.046875 19.980469 L 19.046875 19.9375 C 19.152344 19.929688 19.164062 19.921875 19.164062 19.804688 L 19.164062 19.445312 C 19.164062 19.328125 19.152344 19.320312 19.039062 19.3125 L 19.039062 19.269531 L 19.539062 19.269531 L 19.539062 19.3125 C 19.433594 19.320312 19.417969 19.328125 19.417969 19.445312 L 19.417969 19.617188 C 19.523438 19.535156 19.628906 19.449219 19.726562 19.363281 C 19.75 19.34375 19.765625 19.320312 19.722656 19.316406 L 19.664062 19.3125 L 19.664062 19.269531 L 20.089844 19.269531 L 20.089844 19.3125 C 20 19.320312 19.949219 19.324219 19.867188 19.378906 C 19.789062 19.433594 19.710938 19.488281 19.632812 19.546875 C 19.730469 19.648438 19.835938 19.746094 19.941406 19.84375 C 20.027344 19.921875 20.054688 19.933594 20.121094 19.9375 L 20.121094 19.980469 L 19.753906 19.980469 C 19.691406 19.910156 19.539062 19.75 19.421875 19.632812 L 19.417969 19.632812 L 19.417969 19.804688 "/>
<path style=" stroke:none;fill-rule:nonzero;fill:rgb(10.588235%,30.588236%,61.176473%);fill-opacity:1;" d="M 20.96875 19.484375 C 20.921875 19.339844 20.789062 19.3125 20.683594 19.3125 C 20.515625 19.3125 20.375 19.425781 20.375 19.613281 C 20.375 19.78125 20.480469 19.941406 20.703125 19.941406 C 20.742188 19.941406 20.765625 19.929688 20.765625 19.878906 L 20.765625 19.773438 C 20.765625 19.703125 20.761719 19.695312 20.59375 19.6875 L 20.59375 19.636719 L 21.125 19.636719 L 21.125 19.6875 C 21.046875 19.695312 21.039062 19.699219 21.039062 19.773438 L 21.039062 19.855469 C 21.039062 19.894531 21.039062 19.929688 21.046875 19.953125 C 20.949219 19.972656 20.820312 19.996094 20.6875 19.996094 C 20.304688 19.996094 20.078125 19.855469 20.078125 19.632812 C 20.078125 19.382812 20.367188 19.253906 20.710938 19.253906 C 20.832031 19.253906 20.957031 19.273438 21.015625 19.28125 C 21.019531 19.320312 21.027344 19.375 21.039062 19.480469 L 20.96875 19.484375 M 13.535156 13.4375 C 13.535156 13.4375 13.449219 13.570312 13.371094 13.660156 C 13.289062 13.75 13.265625 13.796875 13.320312 13.828125 C 13.378906 13.863281 13.425781 13.902344 13.546875 13.984375 C 13.515625 14.179688 13.378906 14.484375 13.289062 14.660156 C 13.199219 14.839844 13.09375 15.027344 13.007812 15.117188 C 12.917969 15.207031 12.714844 15.386719 12.589844 15.519531 C 12.460938 15.648438 12.3125 15.746094 12.222656 15.761719 C 12.0625 15.789062 12.011719 15.664062 11.992188 15.695312 C 11.890625 15.835938 11.945312 15.976562 12.128906 16.003906 C 12.191406 16.011719 12.226562 16.074219 12.339844 16.125 C 12.453125 16.175781 12.621094 16.132812 12.71875 16.085938 C 12.8125 16.035156 13.023438 15.90625 13.175781 15.824219 C 13.328125 15.746094 13.484375 15.75 13.660156 15.734375 C 13.808594 15.722656 13.824219 15.46875 13.773438 15.34375 C 13.695312 15.15625 13.753906 15.015625 13.847656 14.792969 C 13.9375 14.570312 14.179688 14.324219 14.179688 14.324219 C 14.179688 14.324219 14.242188 14.292969 14.351562 14.371094 C 14.453125 14.445312 14.472656 14.324219 14.605469 14.164062 C 14.714844 14.03125 14.832031 13.890625 14.761719 13.828125 C 14.683594 13.75 14.703125 13.71875 14.703125 13.71875 C 14.703125 13.71875 14.785156 13.613281 14.867188 13.546875 L 13.535156 13.4375 "/>
<path style=" stroke:none;fill-rule:nonzero;fill:rgb(10.588235%,30.588236%,61.176473%);fill-opacity:1;" d="M 17.777344 10.355469 C 17.777344 10.355469 18.789062 9.585938 19.183594 7.40625 C 19.421875 6.089844 19.324219 4.816406 18.753906 3.550781 C 17.914062 1.6875 15.894531 0.378906 13.964844 0.167969 C 17.1875 -0.582031 20.09375 1.351562 21.199219 3.78125 C 22.277344 6.148438 22.183594 8.625 20.515625 10.9375 C 20.171875 11.414062 18.191406 13.726562 14.675781 13.605469 C 14.425781 13.652344 13.8125 13.527344 13.625 13.453125 C 13.625 13.453125 13.304688 13.328125 12.917969 13.15625 C 12.527344 12.980469 11.609375 12.464844 11.070312 11.964844 C 11.519531 12.238281 12.328125 12.535156 13.089844 12.605469 C 13.574219 12.546875 16.097656 12.089844 17.777344 10.355469 "/>
<path style=" stroke:none;fill-rule:nonzero;fill:rgb(10.588235%,30.588236%,61.176473%);fill-opacity:1;" d="M 16.496094 8.339844 C 16.523438 8.265625 16.3125 8.367188 16.273438 8.386719 C 16.148438 8.453125 16.0625 8.347656 16.085938 8.289062 C 16.109375 8.21875 16.09375 8.171875 16.039062 8.179688 C 16 8.183594 15.988281 8.128906 16.011719 8.09375 C 15.96875 8.09375 15.949219 8.0625 15.941406 8.039062 C 16.003906 8.015625 15.949219 7.949219 15.921875 7.9375 C 15.898438 7.929688 15.84375 7.917969 15.835938 7.875 C 15.832031 7.828125 15.878906 7.769531 15.921875 7.738281 C 15.96875 7.707031 15.984375 7.65625 15.933594 7.5625 C 15.894531 7.484375 15.871094 7.34375 15.910156 7.289062 C 15.820312 7.300781 15.777344 7.410156 15.777344 7.410156 C 15.714844 7.300781 15.75 7.1875 15.769531 7.132812 C 15.738281 7.164062 15.691406 7.253906 15.691406 7.253906 C 15.753906 6.667969 16.429688 6.421875 16.609375 6.382812 C 16.941406 6.308594 17.464844 6.292969 17.386719 6.558594 C 17.386719 6.558594 17.492188 6.347656 17.292969 6.292969 C 17.40625 6.285156 17.496094 6.414062 17.449219 6.492188 C 17.503906 6.457031 17.605469 6.433594 17.640625 6.484375 C 17.585938 6.488281 17.476562 6.550781 17.46875 6.59375 C 17.570312 6.574219 17.671875 6.632812 17.75 6.980469 C 17.785156 7.136719 17.84375 7.644531 17.628906 7.808594 C 17.628906 7.808594 17.640625 7.78125 17.644531 7.738281 C 17.644531 7.738281 17.613281 7.859375 17.449219 7.859375 C 17.449219 7.859375 17.4375 7.914062 17.445312 7.945312 C 17.445312 7.945312 17.644531 7.867188 17.726562 7.894531 C 17.726562 7.894531 17.632812 8.078125 17.59375 8.148438 C 17.726562 8.148438 18.117188 8.410156 18.144531 9.011719 C 18.203125 9.109375 18.273438 9.695312 18.203125 9.957031 C 17.648438 11.765625 13.609375 12.804688 12.917969 12.578125 C 12.917969 12.578125 12.722656 12.425781 12.886719 12.335938 C 12.9375 12.304688 12.902344 12.351562 13.019531 12.382812 C 13.097656 12.40625 13.15625 12.382812 13.25 12.328125 C 13.355469 12.269531 13.5625 12.222656 13.710938 12.117188 C 13.855469 12.007812 13.964844 11.984375 14.121094 11.6875 C 14.152344 11.625 14.171875 11.539062 14.183594 11.433594 C 14.183594 11.410156 14.171875 11.421875 14.03125 11.371094 C 13.949219 11.339844 13.882812 11.378906 13.882812 11.230469 C 13.882812 11.085938 13.941406 10.847656 13.957031 10.792969 C 13.972656 10.734375 14.023438 10.726562 14.171875 10.734375 C 14.234375 10.597656 14.285156 10.355469 14.324219 10.222656 C 14.324219 10.222656 14.285156 10.230469 14.195312 10.230469 C 14.101562 10.230469 14.066406 10.296875 13.914062 10.347656 C 13.765625 10.398438 13.683594 10.382812 13.652344 10.285156 C 13.613281 10.15625 13.613281 10.09375 13.574219 10.003906 C 13.542969 9.9375 13.445312 9.941406 13.464844 9.871094 C 13.484375 9.800781 13.515625 9.769531 13.554688 9.75 C 13.605469 9.699219 13.722656 9.707031 13.835938 9.609375 C 13.945312 9.507812 14.007812 9.613281 14.042969 9.6875 C 14.074219 9.753906 14.085938 9.761719 14.15625 9.851562 C 14.1875 9.898438 14.3125 9.867188 14.394531 9.851562 L 14.464844 9.558594 C 14.414062 9.546875 14.203125 9.507812 13.972656 9.386719 C 13.746094 9.265625 13.574219 9.152344 13.484375 9.160156 C 13.164062 9.199219 13.246094 9.136719 13.09375 8.898438 C 13.003906 8.757812 13.023438 8.746094 12.914062 8.695312 C 12.769531 8.628906 12.863281 8.484375 12.921875 8.492188 C 12.984375 8.503906 13.085938 8.441406 13.175781 8.421875 C 13.144531 8.277344 13.1875 8.195312 13.3125 8.210938 C 13.285156 8.300781 13.414062 8.492188 13.566406 8.542969 C 13.714844 8.59375 13.773438 8.847656 13.773438 8.898438 C 13.914062 9.039062 14.566406 9.03125 14.707031 9.03125 C 14.777344 8.914062 14.804688 8.886719 15.078125 8.886719 C 15.25 8.886719 15.394531 8.929688 15.523438 9.082031 C 15.644531 9.125 15.542969 9.007812 15.753906 8.984375 C 15.960938 8.960938 16.066406 8.871094 16.152344 8.84375 C 16.242188 8.820312 16.242188 8.765625 16.304688 8.707031 C 16.34375 8.675781 16.375 8.597656 16.429688 8.574219 C 16.480469 8.546875 16.476562 8.371094 16.496094 8.335938 M 14.730469 11.59375 C 14.730469 11.59375 14.683594 11.828125 14.726562 12.027344 C 14.855469 11.996094 14.957031 11.890625 15.054688 11.847656 C 15.152344 11.808594 15.417969 11.738281 15.597656 11.648438 C 15.597656 11.648438 15.597656 11.613281 15.535156 11.515625 C 15.484375 11.441406 15.382812 11.082031 15.28125 10.699219 C 15.28125 10.699219 15.242188 10.429688 15.203125 10.445312 C 15.175781 10.457031 15.167969 10.777344 15.15625 10.914062 C 15.136719 11.085938 15.144531 11.027344 15.144531 11.027344 C 15.144531 11.027344 15.25 11.042969 15.234375 11.101562 C 15.214844 11.171875 15.144531 11.574219 15.117188 11.640625 C 15.097656 11.691406 15.085938 11.671875 14.996094 11.652344 C 14.882812 11.628906 14.730469 11.59375 14.730469 11.59375 Z M 16.46875 10.539062 C 16.519531 10.453125 16.503906 10.421875 16.527344 10.246094 C 16.539062 10.003906 16.457031 9.8125 16.457031 9.8125 L 16.078125 9.925781 C 16.191406 10.082031 16.324219 10.402344 16.46875 10.539062 "/>
<path style=" stroke:none;fill-rule:nonzero;fill:rgb(10.588235%,30.588236%,61.176473%);fill-opacity:1;" d="M 6.660156 3.96875 C 8.949219 4.253906 13.851562 8.570312 13.894531 9.886719 L 13.71875 9.917969 C 13.179688 7.945312 8 4.101562 6.660156 4.117188 L 6.660156 3.96875 M 13.832031 10.265625 C 13.851562 10.300781 13.914062 10.472656 13.921875 10.503906 C 13.925781 10.535156 14.117188 10.566406 14.078125 10.429688 C 14.054688 10.34375 14.023438 10.261719 13.988281 10.179688 L 13.832031 10.265625 M 21.351562 19.289062 L 21.351562 19.316406 L 21.304688 19.316406 L 21.304688 19.449219 L 21.269531 19.449219 L 21.269531 19.316406 L 21.222656 19.316406 L 21.222656 19.289062 L 21.351562 19.289062 M 21.476562 19.289062 L 21.523438 19.289062 L 21.523438 19.449219 L 21.492188 19.449219 L 21.492188 19.328125 C 21.492188 19.320312 21.492188 19.316406 21.492188 19.316406 L 21.460938 19.449219 L 21.429688 19.449219 L 21.398438 19.316406 L 21.398438 19.328125 C 21.402344 19.332031 21.402344 19.335938 21.402344 19.339844 L 21.402344 19.449219 L 21.371094 19.449219 L 21.371094 19.289062 L 21.417969 19.289062 L 21.445312 19.414062 L 21.476562 19.289062 "/>
<path style=" stroke:none;fill-rule:nonzero;fill:rgb(10.588235%,30.588236%,61.176473%);fill-opacity:1;" d="M 6.714844 16.003906 L 6.828125 16.003906 L 6.828125 4.046875 L 6.714844 4.046875 Z M 6.714844 16.003906 "/>
</g>
</svg>
