<?xml version="1.0" encoding="UTF-8"?>
<svg xmlns="http://www.w3.org/2000/svg" xmlns:xlink="http://www.w3.org/1999/xlink" width="40px" height="40px" viewBox="0 0 40 40" version="1.1">
<g id="surface1">
<rect x="0" y="0" width="40" height="40" style="fill:rgb(100%,100%,100%);fill-opacity:1;stroke:none;"/>
<path style=" stroke:none;fill-rule:evenodd;fill:rgb(4.705882%,5.490196%,5.882353%);fill-opacity:1;" d="M 27.375 19.164062 C 27.238281 18.859375 26.585938 18.304688 26.285156 18.210938 C 26.074219 18.164062 24.703125 18.792969 24.539062 18.953125 C 24.378906 19.09375 24.355469 19.324219 24.167969 19.441406 C 24.167969 19.304688 23.984375 19.234375 24.003906 19.046875 C 24.027344 18.835938 24.050781 18.628906 24.097656 18.394531 C 24.121094 18.1875 24.121094 17.976562 24.144531 17.746094 C 24.167969 17.558594 24.214844 17.328125 24.167969 17.117188 C 24.050781 16.394531 23.003906 14.722656 22.121094 15.210938 C 21.585938 15.210938 21.890625 14.605469 21.167969 14.582031 C 21.03125 14.582031 20.890625 14.605469 20.773438 14.605469 C 20.566406 14.605469 20.378906 14.582031 20.167969 14.558594 C 20.054688 14.605469 19.9375 14.675781 19.820312 14.722656 L 19.820312 14.675781 C 19.679688 14.675781 19.75 15.023438 19.773438 15.117188 C 19.9375 15.976562 19.9375 16.886719 20.03125 17.816406 C 20.078125 18.1875 20.308594 18.722656 20.167969 19.09375 C 20.074219 19.09375 19.890625 18.976562 19.820312 19.046875 C 19.589844 19.277344 20.214844 21.300781 20.261719 21.652344 L 20.167969 21.652344 C 20.167969 21.558594 20.054688 21.488281 19.960938 21.488281 C 19.867188 21.488281 19.9375 21.765625 19.960938 21.835938 L 20.097656 22.605469 C 20.121094 22.882812 20.121094 23.183594 20.144531 23.488281 C 20.261719 24.136719 20.355469 24.789062 20.472656 25.441406 L 20.566406 25.441406 C 20.566406 25.046875 20.726562 24.765625 20.726562 24.394531 C 20.726562 24.230469 20.679688 24.136719 20.679688 24 C 20.703125 23.765625 20.726562 23.535156 20.609375 23.347656 L 20.609375 23.300781 L 20.726562 23.300781 C 20.726562 23.371094 20.796875 23.441406 20.867188 23.488281 C 20.84375 23.582031 20.796875 23.695312 20.773438 23.789062 L 20.820312 23.789062 C 20.84375 23.71875 20.84375 23.648438 20.867188 23.582031 C 20.960938 23.582031 21.03125 23.671875 21.121094 23.695312 C 21.121094 22.859375 21.074219 22.09375 21.074219 21.300781 L 21.121094 21.300781 L 21.121094 21.347656 C 21.191406 21.347656 21.214844 21.441406 21.261719 21.488281 C 21.214844 21.488281 21.167969 21.464844 21.121094 21.441406 C 21.121094 21.441406 21.515625 21.90625 21.5625 21.953125 L 21.5625 22 L 21.609375 22 C 21.609375 21.835938 21.585938 21.652344 21.5625 21.488281 C 21.585938 21.164062 21.632812 20.835938 21.65625 20.488281 C 21.632812 20.117188 21.632812 19.746094 21.609375 19.347656 L 21.726562 19.347656 L 21.726562 19.394531 C 21.796875 19.394531 22.238281 20.210938 22.308594 20.347656 C 22.726562 20.347656 23.191406 20.117188 23.5625 19.976562 L 23.914062 19.835938 C 24.003906 19.8125 24.097656 19.882812 24.167969 19.929688 C 24.285156 20.070312 24.261719 20.234375 24.285156 20.394531 C 24.308594 20.746094 24.238281 21.070312 24.214844 21.394531 C 24.167969 22.441406 24.515625 23 25.402344 23.441406 C 25.890625 23.671875 26.515625 23.558594 26.933594 23.253906 C 27.144531 23.117188 27.398438 22.859375 27.492188 22.605469 C 27.585938 22.371094 27.492188 21.976562 27.492188 21.699219 C 27.492188 20.929688 27.65625 19.789062 27.375 19.164062 Z M 22.609375 19.441406 C 22.539062 19.441406 22.519531 19.488281 22.449219 19.535156 C 22.308594 19.605469 22.191406 19.511719 22.074219 19.441406 C 22.074219 19.347656 22.121094 19.277344 22.167969 19.210938 C 22.324219 19.230469 22.472656 19.277344 22.609375 19.347656 Z M 22.65625 18.859375 L 22.609375 18.859375 C 22.609375 18.90625 21.820312 18.882812 21.65625 18.90625 L 21.65625 18.859375 C 21.5625 18.859375 21.65625 18.582031 21.679688 18.511719 C 21.773438 17.953125 21.726562 17.234375 21.703125 16.652344 C 21.703125 16.441406 21.5625 16.164062 21.703125 15.976562 C 21.796875 15.816406 22.050781 15.792969 22.214844 15.722656 C 22.355469 15.769531 22.539062 15.816406 22.609375 15.976562 C 22.703125 16.210938 22.65625 16.535156 22.65625 16.816406 Z M 25.421875 19.300781 C 25.492188 19.070312 25.886719 18.835938 26.097656 18.746094 L 26.097656 18.699219 C 26.378906 19 25.679688 19.394531 25.445312 19.441406 L 25.445312 19.394531 C 25.378906 19.394531 25.402344 19.371094 25.421875 19.300781 Z M 26.261719 22.8125 C 26.167969 22.976562 26.027344 23.023438 25.84375 23.023438 C 25.308594 23 25.421875 21.488281 25.402344 21.046875 C 25.378906 20.765625 25.261719 20.324219 25.378906 20.046875 C 25.445312 19.90625 25.609375 19.8125 25.75 19.746094 L 25.75 19.699219 L 26.214844 19.699219 C 26.238281 19.835938 26.261719 19.976562 26.285156 20.09375 C 26.308594 20.605469 26.308594 21.09375 26.308594 21.605469 C 26.308594 21.976562 26.398438 22.488281 26.261719 22.8125 Z M 10.847656 21.347656 L 10.847656 21.253906 C 10.730469 21.253906 10.542969 21.117188 10.496094 21.023438 C 10.359375 20.722656 10.453125 19.976562 10.453125 19.605469 C 10.453125 19.234375 10.453125 18.835938 10.382812 18.511719 C 10.242188 17.90625 9.777344 17.347656 9.359375 16.886719 C 9.289062 16.792969 9.195312 16.746094 9.054688 16.769531 C 8.824219 16.769531 8.035156 17.070312 7.894531 17.234375 C 7.660156 17.535156 7.824219 18.210938 8.011719 18.464844 C 8.011719 18.511719 7.988281 18.511719 8.058594 18.511719 C 8.058594 18.351562 8.3125 18.234375 8.40625 18.164062 C 8.636719 18.046875 8.964844 17.792969 9.21875 18.046875 C 9.476562 18.304688 9.242188 19.929688 9.265625 20.394531 L 9.265625 20.953125 C 9.242188 21.140625 9.242188 21.347656 9.101562 21.488281 L 9.101562 21.535156 C 8.777344 21.535156 8.523438 19.835938 8.800781 19.511719 C 8.777344 19.394531 8.730469 19.277344 8.707031 19.164062 L 8.589844 19.164062 C 8.589844 19.324219 7.382812 19.234375 7.289062 19.070312 C 7.195312 18.882812 7.289062 18.652344 7.265625 18.464844 C 7.242188 18.070312 7.148438 17.582031 7.21875 17.164062 C 7.335938 16.582031 7.636719 16.09375 7.800781 15.558594 L 6.453125 15.558594 L 6.105469 15.769531 C 6.011719 15.769531 5.894531 15.792969 5.871094 15.886719 C 5.824219 16.09375 5.941406 16.375 5.941406 16.605469 C 5.941406 17.558594 5.917969 18.535156 5.894531 19.488281 C 5.871094 19.628906 5.777344 19.699219 5.660156 19.746094 L 5.660156 19.792969 L 5.570312 19.792969 C 5.570312 19.746094 5.570312 19.746094 5.5 19.746094 C 5.5 19.859375 4.964844 20.234375 4.871094 20.347656 L 4.707031 20.347656 L 4.707031 20.300781 L 4.664062 20.300781 C 4.664062 19.929688 4.730469 19.558594 4.730469 19.210938 C 4.730469 18.816406 4.640625 18.371094 4.664062 17.953125 C 4.6875 17.652344 4.894531 16.398438 4.730469 16.164062 C 4.570312 15.933594 3.617188 16.117188 3.359375 16.117188 C 3.222656 16.140625 3.082031 16.140625 2.941406 16.140625 C 2.800781 16.1875 2.988281 16.488281 3.035156 16.558594 C 3.289062 17 3.242188 17.675781 3.175781 18.210938 C 3.175781 18.394531 3.199219 18.558594 3.199219 18.746094 L 3.128906 19.441406 C 3.105469 19.859375 3.265625 20.304688 3.128906 20.652344 L 3.128906 20.699219 C 2.824219 20.699219 2.335938 20.164062 2.222656 19.953125 C 2.082031 19.953125 2.382812 19.722656 2.40625 19.699219 C 2.5 19.699219 2.476562 19.511719 2.523438 19.441406 L 2.523438 19.394531 L 2.476562 19.394531 C 2.476562 19.328125 2.429688 19.351562 2.359375 19.351562 C 1.917969 19.394531 1.664062 19.746094 1.804688 20.1875 C 1.988281 20.746094 2.617188 20.816406 2.988281 21.1875 C 3.199219 21.394531 3.175781 23.1875 3.035156 23.464844 C 2.917969 23.742188 2.640625 23.90625 2.476562 24.140625 L 2.40625 24.140625 L 2.40625 24.230469 C 2.664062 24.207031 2.894531 24.183594 3.128906 24.140625 C 3.59375 24.117188 4.246094 24.207031 4.617188 24.441406 C 4.6875 24.441406 4.664062 24.417969 4.710938 24.394531 C 4.710938 23.90625 4.3125 21.558594 4.570312 21.300781 C 4.664062 21.1875 4.871094 21.1875 4.988281 21.140625 C 5.265625 21.046875 5.5 20.835938 5.753906 20.699219 C 5.753906 20.628906 5.777344 20.652344 5.847656 20.652344 L 5.847656 20.699219 C 5.941406 20.699219 5.871094 21.140625 5.871094 21.257812 C 5.917969 21.535156 5.964844 21.835938 5.988281 22.140625 C 5.988281 22.371094 5.964844 22.605469 5.964844 22.835938 C 5.941406 23.742188 5.800781 24.230469 5.105469 24.789062 L 5.105469 24.929688 C 5.640625 24.953125 6.175781 24.953125 6.707031 24.953125 C 7.128906 25 7.476562 25.113281 7.847656 25.183594 L 7.847656 25.136719 L 7.800781 25.136719 C 7.800781 25.023438 7.546875 24.835938 7.5 24.71875 C 7.382812 24.511719 7.265625 24.277344 7.21875 24.023438 C 7.148438 23.558594 7.265625 23.09375 7.289062 22.652344 C 7.265625 22.140625 7.242188 21.652344 7.21875 21.140625 C 7.195312 20.675781 7.242188 20.210938 7.265625 19.746094 L 7.3125 19.746094 L 7.3125 19.699219 L 7.800781 19.699219 L 7.800781 19.746094 L 7.847656 19.746094 L 7.847656 19.859375 C 7.777344 19.859375 7.707031 19.929688 7.660156 19.953125 C 7.265625 20.234375 7.617188 20.859375 7.683594 21.210938 C 7.777344 21.605469 7.753906 22.09375 8.058594 22.394531 C 8.335938 22.652344 8.707031 22.230469 9.011719 22.230469 C 9.171875 22.230469 9.242188 22.324219 9.40625 22.347656 C 9.542969 22.371094 9.707031 22.371094 9.847656 22.394531 C 9.847656 22.023438 10.523438 21.558594 10.800781 21.347656 C 10.824219 21.347656 10.824219 21.347656 10.847656 21.347656 Z M 18.703125 18.304688 C 18.566406 18.257812 17.773438 18.210938 17.660156 18.328125 C 17.679688 18.441406 17.703125 18.582031 17.726562 18.699219 C 17.726562 19 17.496094 19.722656 17.308594 19.929688 C 17.238281 20.023438 17.148438 20.070312 17.03125 20.046875 C 16.960938 20.023438 16.890625 20 16.84375 19.90625 C 16.796875 19.8125 16.613281 19.070312 16.636719 18.953125 C 16.683594 18.769531 16.867188 18.699219 16.820312 18.464844 C 16.820312 18.371094 16.796875 18.371094 16.726562 18.351562 L 16.726562 18.394531 C 16.519531 18.464844 16.285156 18.535156 16.078125 18.605469 L 15.589844 18.605469 C 15.402344 18.605469 15.195312 18.605469 15.078125 18.488281 C 14.890625 18.328125 14.984375 17.511719 14.984375 17.210938 L 15.195312 17.210938 C 15.195312 17.535156 15.496094 17.769531 15.195312 18.046875 L 15.195312 18.164062 C 15.285156 18.164062 15.332031 18.257812 15.472656 18.257812 C 15.707031 18.234375 15.9375 18 16.125 17.90625 C 16.332031 17.816406 16.519531 17.746094 16.726562 17.652344 L 16.773438 17.652344 C 16.773438 17.441406 15.960938 16.375 15.75 16.304688 C 15.496094 16.234375 15.261719 16.351562 15.03125 16.421875 L 15.03125 16.351562 L 14.984375 16.351562 C 14.984375 16.117188 15.007812 15.886719 14.9375 15.652344 C 14.496094 15.957031 14.007812 16.558594 13.542969 16.699219 C 13.542969 16.816406 13.796875 16.929688 13.820312 17.257812 L 13.820312 18.257812 C 13.796875 18.394531 13.796875 18.511719 13.777344 18.652344 C 13.820312 19.324219 13.867188 20.210938 13.660156 20.789062 C 13.566406 21.09375 13.242188 21.253906 13.078125 21.535156 L 13.03125 21.535156 L 13.03125 21.605469 C 13.355469 21.605469 13.730469 21.652344 14.078125 21.652344 C 14.472656 21.652344 14.84375 21.582031 15.195312 21.652344 L 15.195312 21.535156 C 15.101562 21.535156 15.007812 21.347656 14.984375 21.277344 C 14.867188 20.929688 14.960938 20.464844 14.984375 20.09375 L 14.984375 18.90625 L 15.03125 18.90625 L 15.03125 18.859375 C 15.496094 18.859375 16.148438 21.277344 16.054688 21.789062 C 16.03125 21.835938 15.261719 22.90625 15.21875 22.953125 C 14.960938 23.164062 13.332031 23.117188 13.265625 22.8125 C 13.148438 22.417969 13.9375 22.324219 14.242188 22.347656 L 14.242188 22.300781 L 14.285156 22.300781 L 14.285156 22.253906 L 14.242188 22.253906 C 14.242188 22.164062 14.195312 22.1875 14.148438 22.1875 C 13.730469 22.1875 13.195312 22.253906 12.84375 22.140625 L 12.730469 22.140625 C 12.730469 22.394531 12.289062 22.8125 12.335938 23.046875 C 12.402344 23.488281 14.867188 24 15.378906 23.859375 C 15.636719 23.765625 16.03125 23.441406 16.214844 23.230469 C 16.308594 23.117188 16.378906 22.976562 16.449219 22.859375 C 16.75 22.417969 17.054688 21.953125 17.308594 21.488281 C 17.566406 20.953125 17.773438 20.394531 18.078125 19.90625 C 18.332031 19.488281 18.820312 19.164062 18.867188 18.652344 C 18.867188 18.511719 18.84375 18.347656 18.703125 18.304688 Z M 18.703125 18.304688 "/>
<path style=" stroke:none;fill-rule:evenodd;fill:rgb(4.705882%,5.490196%,5.882353%);fill-opacity:1;" d="M 12.3125 20.09375 C 12.242188 19.488281 12.265625 18.90625 12.21875 18.304688 C 12.21875 18.023438 12.148438 17.769531 12.148438 17.464844 L 12.195312 17.464844 L 12.195312 17.394531 L 12.335938 17.394531 C 12.382812 17.535156 12.402344 17.652344 12.449219 17.769531 C 12.519531 18.046875 12.566406 18.488281 12.449219 18.746094 L 12.449219 18.816406 L 12.496094 18.816406 L 12.496094 18.859375 C 12.683594 18.859375 12.9375 18.675781 13.101562 18.582031 C 13.21875 18.511719 13.402344 18.441406 13.472656 18.328125 C 13.730469 17.816406 13.242188 16.863281 13.03125 16.464844 C 12.871094 16.464844 12.730469 16.605469 12.566406 16.652344 C 12.125 16.746094 12.195312 16.328125 12.242188 16.070312 C 12.148438 16.046875 12.078125 16.023438 11.984375 16 C 11.800781 16.070312 11.613281 16.09375 11.449219 16.1875 C 11.078125 16.421875 10.777344 16.863281 10.359375 17.046875 L 10.359375 17.164062 L 10.40625 17.164062 L 10.40625 17.210938 C 10.636719 17.210938 10.707031 17.070312 10.984375 17.164062 L 11.054688 17.511719 C 11.007812 18.164062 11.125 18.839844 11.148438 19.511719 C 11.101562 19.953125 11.078125 20.394531 11.054688 20.859375 C 11.03125 21.046875 11.101562 21.257812 11.03125 21.417969 C 10.984375 21.558594 10.777344 21.652344 10.707031 21.789062 L 10.636719 21.789062 L 10.636719 21.835938 C 11.21875 21.835938 11.589844 21.765625 12.101562 21.953125 C 12.101562 21.859375 12.359375 21.652344 12.449219 21.605469 C 12.402344 21.09375 12.359375 20.605469 12.3125 20.09375 Z M 34.234375 21.652344 L 34.1875 21.652344 C 34.140625 21.742188 34.117188 21.835938 34.09375 21.953125 C 33.980469 22.300781 33.933594 22.742188 33.675781 23.046875 L 33.675781 23.09375 C 33.1875 23.09375 33.1875 20.859375 33.1875 20.394531 L 33.234375 20.394531 C 33.234375 20.300781 33.304688 20.347656 33.375 20.371094 C 33.839844 20.441406 34.582031 20.90625 34.933594 20.417969 C 35.257812 20 35.117188 19.394531 34.886719 19 C 34.839844 18.90625 34.792969 18.792969 34.746094 18.699219 C 34.398438 18.351562 33.839844 18.140625 33.375 18 C 33.375 18 32.539062 18.652344 32.445312 18.859375 C 32.257812 18.859375 32.210938 18.628906 32.140625 18.511719 C 32.140625 18.394531 31.46875 18.394531 31.328125 18.394531 L 31.328125 18.351562 C 31.257812 18.351562 31.28125 18.28125 31.28125 18.210938 C 31.304688 17.699219 31.5625 17.023438 31.328125 16.558594 L 31.328125 16.511719 C 31.28125 16.511719 31.28125 16.488281 31.28125 16.558594 C 30.980469 16.558594 30.398438 17.699219 30.234375 17.953125 C 30.074219 17.953125 30.003906 17.722656 29.933594 17.605469 C 29.769531 17.558594 29.609375 17.511719 29.445312 17.464844 C 29.351562 17.464844 29.398438 17.417969 29.398438 17.351562 C 29.398438 16.953125 29.585938 16.304688 29.304688 16 C 28.863281 16.464844 28.445312 16.886719 27.980469 17.28125 C 27.75 17.488281 27.285156 17.722656 27.144531 17.953125 C 27.074219 17.953125 27.097656 17.929688 27.097656 18 L 27.144531 18 C 27.144531 18.164062 28.027344 17.929688 28.074219 18.558594 L 28.074219 19.300781 C 28.144531 20.628906 27.839844 22.046875 28.027344 23.347656 C 28.050781 23.511719 28.027344 23.742188 28.121094 23.882812 C 28.328125 24.160156 29.050781 24.464844 29.445312 24.488281 L 29.445312 24.441406 L 29.492188 24.441406 C 29.492188 24.113281 29.144531 23.953125 29.121094 23.648438 C 29.144531 23.347656 29.167969 23.070312 29.191406 22.789062 C 29.191406 22.023438 29.191406 21.253906 29.214844 20.488281 C 29.234375 20.09375 29.28125 19.699219 29.328125 19.300781 C 29.351562 18.90625 29.28125 18.558594 29.234375 18.210938 L 29.304688 18.210938 C 29.304688 18.140625 29.746094 18.164062 29.839844 18.164062 L 29.839844 18.210938 C 29.910156 18.210938 29.609375 18.765625 29.585938 18.90625 L 29.65625 18.90625 L 29.65625 18.953125 C 29.910156 18.953125 30.144531 18.882812 30.210938 19.210938 C 30.304688 19.675781 30.210938 20.207031 30.191406 20.652344 C 30.167969 20.953125 30.304688 21.160156 30.257812 21.488281 C 30.167969 22.347656 29.839844 23.601562 30.515625 24.253906 C 30.839844 24.578125 31.375 24.8125 31.792969 25 C 32.375 25.253906 32.539062 25.019531 32.933594 24.625 C 33.074219 24.488281 33.1875 24.324219 33.328125 24.183594 C 33.398438 24.183594 33.375 24.207031 33.375 24.136719 C 33.28125 24.136719 33.210938 24.042969 33.121094 24 C 32.933594 23.90625 32.5625 23.835938 32.328125 23.929688 L 31.675781 23.929688 L 31.675781 24 L 31.628906 24 C 31.628906 24.136719 32.328125 24.277344 32.492188 24.277344 L 32.492188 24.347656 L 32.539062 24.347656 L 32.539062 24.441406 C 32.445312 24.464844 32.328125 24.488281 32.234375 24.507812 C 32.050781 24.507812 31.609375 24.371094 31.492188 24.230469 C 31.304688 24.019531 31.398438 21.324219 31.375 20.789062 C 31.375 20.207031 31.328125 19.582031 31.328125 18.953125 L 31.398438 18.953125 C 31.398438 18.882812 32.164062 18.90625 32.28125 19 C 32.351562 19 32.328125 18.976562 32.328125 19.046875 C 32.257812 19.046875 32.210938 19.164062 32.1875 19.230469 C 32.003906 19.582031 32.050781 20.046875 32.003906 20.441406 C 31.980469 20.976562 31.863281 21.625 32.027344 22.136719 C 32.210938 22.835938 33.09375 23.371094 33.722656 23.578125 C 33.722656 23.511719 33.933594 23.394531 34.027344 23.324219 C 34.164062 23.160156 34.28125 22.976562 34.398438 22.8125 C 34.746094 22.300781 34.746094 22.070312 34.234375 21.652344 Z M 33.375 18.605469 C 33.886719 18.722656 34.027344 19.417969 34.070312 19.90625 L 34.070312 20.046875 C 33.816406 20.046875 33.605469 19.953125 33.328125 19.953125 L 33.328125 19.90625 C 33.210938 19.90625 33.304688 18.769531 33.375 18.605469 Z M 33.375 18.605469 "/>
<path style=" stroke:none;fill-rule:evenodd;fill:rgb(4.705882%,5.490196%,5.882353%);fill-opacity:1;" d="M 29.703125 17.257812 C 29.679688 17.234375 29.65625 17.234375 29.65625 17.210938 C 29.679688 17.234375 29.703125 17.328125 29.703125 17.257812 Z M 37.582031 17.746094 C 37.1875 17.746094 36.953125 18.070312 36.675781 18.257812 C 36.675781 18.1875 36.582031 18.117188 36.558594 18.046875 C 36.511719 17.839844 36.558594 17.675781 36.375 17.558594 L 36.375 17.605469 C 36.023438 17.605469 35.398438 18.558594 35.070312 18.816406 L 35.070312 18.953125 C 35.164062 18.953125 35.257812 19.023438 35.328125 19.046875 C 35.351562 19.277344 35.375 19.488281 35.398438 19.699219 C 35.375 19.859375 35.375 20.023438 35.351562 20.210938 C 35.375 20.835938 35.398438 21.558594 35.351562 22.183594 C 35.304688 22.582031 35.304688 22.90625 35.140625 23.230469 C 35.046875 23.417969 34.839844 23.535156 34.628906 23.582031 C 34.628906 23.695312 34.699219 23.765625 34.792969 23.8125 C 35.003906 23.90625 35.234375 23.882812 35.46875 23.929688 C 35.816406 23.976562 36.09375 24.113281 36.421875 24.160156 C 36.628906 24.207031 36.863281 24.230469 37.070312 24.277344 C 37.257812 24.300781 37.464844 24.324219 37.675781 24.347656 C 37.816406 24.324219 37.863281 24.230469 37.976562 24.136719 L 37.976562 24.09375 C 37.535156 24.09375 37.046875 23.976562 36.792969 23.671875 C 36.488281 23.277344 36.605469 21.953125 36.605469 21.394531 C 36.582031 21.09375 36.558594 20.789062 36.535156 20.488281 C 36.511719 19.976562 36.582031 19.441406 36.582031 18.90625 L 36.628906 18.90625 C 36.628906 18.816406 36.816406 18.882812 36.886719 18.90625 C 36.886719 19.371094 37.210938 19.835938 36.886719 20.257812 L 36.886719 20.300781 L 36.816406 20.300781 L 36.816406 20.347656 C 37.117188 20.347656 37.375 20.09375 37.582031 19.90625 C 37.769531 19.746094 38.070312 19.605469 38.210938 19.394531 C 38.375 19.140625 37.699219 18.023438 37.582031 17.746094 Z M 20.03125 21.253906 L 20.121094 21.253906 C 20.121094 21.140625 20.074219 21.070312 20.03125 21 Z M 21.378906 21.835938 L 21.425781 21.835938 C 21.425781 21.765625 21.355469 21.742188 21.308594 21.699219 L 21.308594 21.789062 C 21.378906 21.789062 21.378906 21.765625 21.378906 21.835938 Z M 21.425781 22.347656 L 21.425781 22.394531 L 21.472656 22.394531 C 21.472656 22.300781 21.402344 22.253906 21.378906 22.183594 C 21.378906 22.253906 21.402344 22.300781 21.425781 22.347656 Z M 21.425781 22.347656 "/>
</g>
</svg>
