<?xml version="1.0" encoding="UTF-8"?>
<svg xmlns="http://www.w3.org/2000/svg" xmlns:xlink="http://www.w3.org/1999/xlink" width="60px" height="66px" viewBox="0 0 60 65" version="1.1">
<g id="surface1">
<path style=" stroke:none;fill-rule:nonzero;fill:rgb(1.176471%,1.176471%,1.176471%);fill-opacity:1;" d="M 36.207031 0.804688 C 37.902344 0.828125 39.597656 0.90625 41.292969 0.988281 C 42.953125 1.101562 44.617188 0.984375 46.277344 0.953125 C 46.261719 1.5 46.289062 2.050781 46.238281 2.597656 C 46.203125 3.164062 46.128906 3.742188 46.285156 4.296875 C 46.707031 4.179688 47.121094 4.042969 47.550781 3.96875 C 48.242188 3.734375 48.902344 3.421875 49.582031 3.167969 C 50.351562 3.066406 51.019531 2.542969 51.816406 2.59375 C 52.066406 3.066406 52.640625 3.257812 52.832031 3.777344 C 53.136719 4.132812 53.546875 4.417969 53.742188 4.863281 C 54.394531 5.4375 54.808594 6.230469 55.460938 6.804688 C 55.640625 7.203125 55.960938 7.511719 56.28125 7.800781 C 56.480469 8.101562 56.636719 8.441406 56.941406 8.664062 C 57.203125 8.851562 57.3125 9.15625 57.488281 9.40625 C 57.816406 9.691406 58.105469 10.019531 58.3125 10.402344 C 58.570312 10.695312 58.765625 11.035156 58.980469 11.359375 C 59.246094 11.703125 59.183594 12.160156 59.226562 12.5625 C 59.136719 13.296875 59.214844 14.039062 59.128906 14.773438 C 58.859375 17.726562 58.558594 20.675781 58.269531 23.625 C 58.246094 24.351562 58.28125 25.074219 58.253906 25.800781 C 57.957031 26.128906 57.554688 26.355469 57.328125 26.742188 C 57.273438 26.859375 57.15625 26.902344 57.050781 26.957031 C 56.585938 27.175781 56.269531 27.617188 55.78125 27.796875 C 54.953125 28.105469 54.222656 28.660156 53.335938 28.800781 C 52.359375 29.128906 51.371094 29.46875 50.339844 29.5625 C 50.121094 29.554688 49.800781 29.632812 49.691406 29.382812 C 49.492188 28.984375 49.140625 28.671875 49.035156 28.230469 C 48.738281 27.785156 48.382812 27.375 48.164062 26.878906 C 47.886719 26.277344 47.355469 25.828125 47.128906 25.203125 C 46.90625 24.886719 46.695312 24.5625 46.488281 24.234375 C 46.710938 24.21875 46.960938 24.289062 47.15625 24.140625 C 47.316406 24.132812 47.480469 24.132812 47.644531 24.128906 C 47.878906 24.285156 48.085938 24.480469 48.210938 24.734375 C 48.359375 25.042969 48.691406 25.1875 48.898438 25.449219 C 49.085938 25.644531 49.164062 25.925781 49.40625 26.074219 C 49.714844 26.292969 49.925781 26.609375 50.167969 26.894531 C 50.617188 27.050781 50.84375 26.511719 51.019531 26.203125 C 51.355469 25.851562 51.714844 25.476562 51.847656 25 C 51.910156 20.109375 51.820312 15.207031 51.296875 10.339844 C 51.207031 9.230469 50.945312 8.140625 50.929688 7.027344 C 50.867188 6.640625 50.761719 6.257812 50.734375 5.867188 C 50.539062 5.699219 50.304688 5.496094 50.027344 5.574219 C 49.484375 5.683594 48.957031 5.871094 48.394531 5.847656 C 47.683594 6.007812 46.964844 6.152344 46.285156 6.425781 C 46.175781 7.027344 46.230469 7.640625 46.21875 8.25 C 46.203125 10.359375 46.261719 12.46875 46.242188 14.582031 C 46.234375 17.667969 46.289062 20.75 46.269531 23.835938 C 46.480469 28.296875 46.820312 32.753906 47.136719 37.210938 C 47.191406 37.75 47.191406 38.289062 47.183594 38.832031 C 47.199219 39.015625 47.015625 39.128906 46.929688 39.265625 C 46.640625 38.84375 46.375 38.402344 46.210938 37.914062 C 45.992188 37.3125 45.554688 36.816406 45.347656 36.207031 C 45.121094 35.601562 44.738281 35.074219 44.464844 34.492188 C 44.394531 40.21875 44.488281 45.945312 44.410156 51.671875 C 43.992188 51.496094 43.8125 51.078125 43.582031 50.726562 C 43.429688 49.972656 42.8125 49.414062 42.582031 48.6875 C 42.4375 48.242188 42.105469 47.894531 41.917969 47.472656 C 41.863281 48.640625 41.710938 49.808594 41.695312 50.980469 C 41.730469 52.054688 41.585938 53.125 41.515625 54.195312 C 41.3125 56.75 41.105469 59.304688 40.84375 61.851562 C 40.710938 62.636719 40.894531 63.464844 40.566406 64.214844 C 40.304688 63.09375 40.160156 61.953125 39.929688 60.824219 C 39.828125 60.402344 39.898438 59.964844 39.808594 59.542969 C 39.53125 58.0625 39.273438 56.574219 38.992188 55.09375 C 38.929688 54.734375 38.972656 54.371094 38.902344 54.015625 C 38.617188 52.484375 38.332031 50.957031 38.054688 49.429688 C 38.066406 48.65625 37.859375 47.910156 37.730469 47.15625 C 37.539062 46.121094 37.34375 45.085938 37.148438 44.050781 C 37.109375 43.683594 37.132812 43.3125 37.050781 42.953125 C 36.800781 41.636719 36.550781 40.324219 36.304688 39.007812 C 36.164062 38.445312 36.238281 37.851562 36.09375 37.289062 C 36.261719 37.585938 36.492188 37.855469 36.785156 38.046875 C 37.089844 38.214844 37.160156 38.601562 37.449219 38.792969 C 37.738281 38.980469 37.976562 39.222656 38.15625 39.515625 C 38.296875 39.527344 38.355469 39.457031 38.328125 39.3125 C 38.246094 38.304688 38.003906 37.308594 38.027344 36.292969 C 37.777344 34.425781 37.472656 32.570312 37.160156 30.714844 C 37.089844 30.363281 37.15625 30.003906 37.078125 29.652344 C 36.785156 28 36.488281 26.335938 36.15625 24.695312 C 35.132812 24.488281 34.046875 24.792969 33.0625 25.125 C 32.742188 25.203125 32.464844 25.402344 32.136719 25.445312 C 31.960938 25.472656 31.792969 25.542969 31.652344 25.648438 C 31.523438 25.929688 31.605469 26.253906 31.585938 26.554688 C 31.566406 29.835938 31.628906 33.117188 31.609375 36.402344 C 31.65625 39.785156 31.625 43.175781 31.636719 46.558594 C 31.582031 48.003906 31.757812 49.492188 32.410156 50.800781 C 32.613281 51.316406 32.929688 51.835938 33.421875 52.125 C 33.699219 52.371094 34.058594 52.5 34.359375 52.71875 C 34.390625 52.871094 34.390625 53.03125 34.363281 53.183594 C 34.210938 53.335938 33.984375 53.378906 33.777344 53.332031 C 32.832031 53.167969 31.882812 52.960938 30.914062 52.988281 C 27.851562 52.628906 24.738281 52.46875 21.671875 52.859375 C 21.472656 52.839844 21.496094 52.625 21.457031 52.488281 C 21.421875 52.296875 21.269531 52.15625 21.164062 52 C 21.566406 51.679688 22 51.402344 22.441406 51.136719 C 22.738281 50.820312 23.042969 50.511719 23.339844 50.195312 C 23.464844 49.839844 23.664062 49.511719 23.820312 49.167969 C 24.121094 48.296875 24.359375 47.378906 24.324219 46.449219 C 24.722656 42.40625 24.6875 38.335938 24.558594 34.28125 C 24.523438 32.863281 24.410156 31.449219 24.316406 30.039062 C 23.921875 30.324219 23.542969 30.632812 23.148438 30.914062 C 22.707031 30.992188 22.390625 31.320312 21.988281 31.480469 C 21.597656 31.644531 21.246094 31.902344 20.808594 31.921875 C 20.03125 32.253906 19.226562 32.527344 18.414062 32.757812 C 18.019531 32.773438 17.636719 32.855469 17.253906 32.957031 C 17.308594 37.6875 17.324219 42.421875 17.398438 47.152344 C 17.359375 47.625 17.660156 48.015625 17.863281 48.417969 C 18.414062 48.695312 18.785156 49.285156 19.417969 49.402344 C 19.496094 49.460938 19.574219 49.519531 19.652344 49.578125 C 19.644531 49.742188 19.636719 49.910156 19.628906 50.074219 C 18.199219 49.578125 16.675781 49.484375 15.175781 49.375 C 13.445312 49.40625 11.71875 49.273438 9.988281 49.25 C 8.609375 49.210938 7.230469 49.1875 5.851562 49.195312 C 5.839844 48.960938 5.828125 48.726562 5.816406 48.496094 C 6.316406 48.417969 6.742188 48.136719 7.148438 47.859375 C 7.71875 47.507812 8.277344 47.09375 8.640625 46.523438 C 8.886719 46.058594 9.136719 45.578125 9.175781 45.050781 C 9.398438 43.25 9.355469 41.429688 9.40625 39.621094 C 9.398438 37.636719 9.386719 35.65625 9.332031 33.671875 C 8.765625 33.394531 8.199219 33.117188 7.652344 32.804688 C 7.347656 32.789062 7.078125 32.640625 6.828125 32.484375 C 6.5 32.28125 6.136719 32.144531 5.808594 31.941406 C 5.574219 31.851562 5.3125 31.820312 5.113281 31.660156 C 4.773438 31.417969 4.386719 31.253906 4.050781 31.007812 C 3.546875 30.75 3.253906 30.253906 2.875 29.863281 C 2.671875 29.621094 2.5 29.363281 2.296875 29.125 C 2.097656 28.558594 1.621094 28.152344 1.410156 27.597656 C 1.238281 27.113281 0.957031 26.679688 0.8125 26.183594 C 1.539062 25.808594 2.316406 25.453125 3.144531 25.414062 C 4.101562 25.195312 5.0625 25.003906 6.035156 24.863281 C 6.332031 24.851562 6.242188 25.195312 6.128906 25.351562 C 5.769531 25.554688 5.386719 25.722656 5.046875 25.960938 C 4.789062 26.148438 4.507812 26.324219 4.1875 26.375 C 3.6875 26.714844 3.152344 27 2.683594 27.382812 C 2.890625 27.574219 3.09375 27.773438 3.28125 27.988281 C 3.484375 28.234375 3.835938 28.265625 4.054688 28.488281 C 4.59375 29.007812 5.332031 29.226562 5.933594 29.65625 C 6.195312 29.84375 6.488281 30 6.800781 30.09375 C 7.609375 30.402344 8.320312 31.15625 9.25 30.996094 C 9.277344 29.175781 9.207031 27.359375 9.152344 25.539062 C 9.027344 21.585938 8.867188 17.632812 8.703125 13.683594 C 8.636719 12.605469 8.679688 11.527344 8.664062 10.449219 C 8.667969 10.148438 8.507812 9.878906 8.359375 9.628906 C 7.929688 8.832031 7.109375 8.335938 6.292969 7.996094 C 6.359375 7.75 6.558594 7.546875 6.828125 7.542969 C 8.519531 7.660156 10.222656 7.621094 11.917969 7.589844 C 14.015625 7.546875 16.109375 7.457031 18.207031 7.386719 C 18.195312 7.605469 18.175781 7.820312 18.152344 8.035156 C 18.058594 8.078125 17.96875 8.121094 17.878906 8.164062 C 17.609375 8.507812 17.273438 8.808594 17.070312 9.199219 C 16.777344 9.746094 16.953125 10.378906 16.886719 10.964844 C 16.84375 13.476562 16.921875 15.988281 16.898438 18.5 C 16.882812 21.585938 17.042969 24.667969 17.15625 27.753906 C 17.191406 28.464844 17.210938 29.183594 17.289062 29.894531 C 17.777344 29.78125 18.234375 29.570312 18.679688 29.351562 C 18.945312 29.128906 19.332031 29.167969 19.597656 28.941406 C 19.910156 28.6875 20.296875 28.546875 20.605469 28.289062 C 21.28125 28.125 21.679688 27.472656 22.34375 27.285156 C 22.71875 26.964844 23.140625 26.707031 23.515625 26.394531 C 23.8125 26.253906 24.0625 26.046875 24.3125 25.847656 C 24.324219 23.398438 24.316406 20.945312 24.320312 18.496094 C 24.222656 14.734375 24.015625 10.976562 23.695312 7.230469 C 23.660156 6.890625 23.488281 6.585938 23.378906 6.269531 C 23.089844 6.109375 22.820312 5.914062 22.523438 5.773438 C 22.421875 5.5625 22.082031 5.246094 22.382812 5.058594 C 23.519531 5.3125 24.6875 5.195312 25.839844 5.257812 C 27.402344 5.339844 28.960938 5.214844 30.523438 5.226562 C 31.4375 5.183594 32.34375 5.042969 33.257812 5.007812 C 33.304688 5.039062 33.398438 5.105469 33.445312 5.136719 C 33.1875 5.464844 32.832031 5.722656 32.652344 6.109375 C 32.335938 6.835938 31.917969 7.511719 31.664062 8.265625 C 31.386719 10.191406 31.421875 12.144531 31.40625 14.085938 C 31.394531 15.996094 31.425781 17.90625 31.4375 19.816406 C 31.484375 21.050781 31.449219 22.289062 31.527344 23.523438 C 32.605469 23.273438 33.683594 22.984375 34.792969 22.914062 C 35.617188 22.722656 36.542969 22.765625 37.238281 23.296875 C 37.480469 23.335938 37.714844 23.414062 37.910156 23.5625 C 38.28125 23.84375 38.691406 24.058594 39.097656 24.28125 C 39.027344 23.523438 38.917969 22.773438 38.945312 22.015625 C 38.722656 19.890625 38.398438 17.78125 38.078125 15.671875 C 38.011719 15.292969 38.058594 14.902344 38.015625 14.523438 C 37.722656 12.582031 37.441406 10.640625 37.160156 8.699219 C 37.089844 8.3125 37.152344 7.917969 37.089844 7.53125 C 36.832031 5.761719 36.570312 3.988281 36.3125 2.214844 C 36.226562 1.75 36.191406 1.277344 36.207031 0.804688 Z M 36.207031 0.804688 "/>
</g>
</svg>
